:SAMPLES-PER-SECOND 30
:FULLY-SPECIFIED
:DEGREES
357
root  34.85404788 36.53108191 -14.73997672 8.731936455 -2.573056221 3.310188532
lowerback  -8.362360954 0.1987248957 -0.308401674
upperback  -3.044579983 0.6868990064 -3.239629984
thorax  1.573889971 0.4723069966 -3.105679989
lowerneck  -14.70709991 0.1862979978 0.2892700136
upperneck  15.7901001 -0.5442849994 5.671460152
head  7.293459892 0.415574044 1.765339971
lclavicle  0 -4.497500157e-015 -2.743230041e-014
lhumerus  -44.21459961 27.03420067 68.84059906
lradius  0.004719055258 -6.507048965e-006 29.76580238
lwrist  4.824992743e-007 -3.790274832e-007 -27.26749992
lhand  -4.405300586e-031 -36.72040176 -10.72439957
lfingers  90 7.125020027 -90
lthumb  94.74225044 -25.56571091 100.8814038
rclavicle  0 -4.497500157e-015 -2.743230041e-014
rhumerus  -53.01370239 -41.15510178 -51.98399734
rradius  -5.16745672e-007 2.214343908e-008 32.42689896
rwrist  -7.499573258e-005 0.03438235447 -137.9859924
rhand  -1.775242907e-031 5.986219883 -7.881830215
rfingers  -90 -7.125020027 -90
rthumb  -84.88329923 -8.341505645 -58.31643225
rfemur  -11.77994919 15.73597908 13.39744663
rtibia  -0.9388356209 -0.2453399748 20.39183617
rfoot  0.1491688043 -20.6116066 -37.67378235
rtoes  4.099939364 19.59211694 -102.066185
lfemur  -7.90709734 -17.3249836 -19.91452599
ltibia  2.785440207 -0.08818683028 14.17534161
lfoot  0.6867417097 -24.95899391 36.26402664
ltoes  -8.506763157 -18.16811184 -115.6267749
358
root  34.85291248 36.5294509 -14.74332134 8.701989174 -2.477727413 3.30734086
lowerback  -8.379229546 0.1817390174 -0.3123783469
upperback  -3.052969933 0.6656910181 -3.232089996
thorax  1.573320031 0.4621779919 -3.097599983
lowerneck  -14.72920036 0.1482719928 0.2616870105
upperneck  15.76430035 -0.5913569331 5.665649891
head  7.290279865 0.3895410001 1.76275003
lclavicle  0 -4.497500157e-015 -2.743230041e-014
lhumerus  -44.2016983 26.94589996 68.90789795
lradius  0.004719055258 -6.507048965e-006 29.81950188
lwrist  4.824992743e-007 -3.790274832e-007 -27.12829971
lhand  -4.405300586e-031 -36.72040176 -10.72439957
lfingers  90 7.125020027 -90
lthumb  94.74225044 -25.56571091 100.8814038
rclavicle  0 -4.497500157e-015 -2.743230041e-014
rhumerus  -52.88620377 -40.72940063 -52.63319778
rradius  -5.16745672e-007 2.214343908e-008 32.49640274
rwrist  -7.499573258e-005 0.03438235447 -138.3000031
rhand  -1.775242907e-031 5.986219883 -7.881830215
rfingers  -90 -7.125020027 -90
rthumb  -84.88329923 -8.341505645 -58.31643225
rfemur  -11.74784184 15.74386883 13.43034172
rtibia  -0.9502928257 -0.2033997327 20.4176445
rfoot  0.1241768822 -20.55221367 -37.75504684
rtoes  4.099939364 19.59211694 -102.066185
lfemur  -7.836957932 -17.36092186 -19.92613411
ltibia  2.817326546 -0.05003714189 14.11158752
lfoot  0.6856286526 -25.01843071 36.2562561
ltoes  -8.506763157 -18.16811184 -115.6267749
359
root  34.85265717 36.52797008 -14.74593455 8.665290833 -2.402430296 3.283645868
lowerback  -8.356019974 0.2043460011 -0.2562102973
upperback  -3.092600107 0.6964480281 -3.281949997
thorax  1.522169948 0.479054004 -3.178509951
lowerneck  -14.70440006 0.08328089863 0.2357549965
upperneck  15.72799969 -0.6802949905 5.715330124
head  7.277120113 0.3496760428 1.773470044
lclavicle  0 -4.497500157e-015 -2.743230041e-014
lhumerus  -44.17269897 26.65850067 69.02539825
lradius  0.004719055258 -6.507048965e-006 29.87859917
lwrist  4.824992743e-007 -3.790274832e-007 -26.90270042
lhand  -4.405300586e-031 -36.72040176 -10.72439957
lfingers  90 7.125020027 -90
lthumb  94.74225044 -25.56571091 100.8814038
rclavicle  0 -4.497500157e-015 -2.743230041e-014
rhumerus  -52.85269928 -40.27669907 -53.27959824
rradius  -5.16745672e-007 2.214343908e-008 32.56399536
rwrist  -7.499573258e-005 0.03438235447 -138.8269958
rhand  -1.775242907e-031 5.986219883 -7.881830215
rfingers  -90 -7.125020027 -90
rthumb  -84.88329923 -8.341505645 -58.31643225
rfemur  -11.69108868 15.74222374 13.47610569
rtibia  -0.9462321401 -0.1702893227 20.39588547
rfoot  0.125542447 -20.5087471 -37.80807495
rtoes  4.099939364 19.59211694 -102.066185
lfemur  -7.830525398 -17.3987484 -19.88698006
ltibia  2.78370738 -0.038814459 14.16102886
lfoot  0.6837338209 -25.07107544 36.23853683
ltoes  -8.506763157 -18.16811184 -115.6267749
360
root  34.85072879 36.52691578 -14.74882712 8.635720253 -2.314317703 3.298835039
lowerback  -8.343110085 0.2086481005 -0.1741258353
upperback  -3.117810011 0.6977490187 -3.303450108
thorax  1.489989996 0.4800519943 -3.247380018
lowerneck  -14.69130039 0.05121250078 0.2086890042
upperneck  15.70530033 -0.725515008 5.771319866
head  7.269199848 0.3316929936 1.79128015
lclavicle  0 -4.497500157e-015 -2.743230041e-014
lhumerus  -44.15990067 26.5156002 69.07939911
lradius  0.004719055258 -6.507048965e-006 29.89870071
lwrist  4.824992743e-007 -3.790274832e-007 -26.72529984
lhand  -4.405300586e-031 -36.72040176 -10.72439957
lfingers  90 7.125020027 -90
lthumb  94.74225044 -25.56571091 100.8814038
rclavicle  0 -4.497500157e-015 -2.743230041e-014
rhumerus  -52.7609024 -39.90300369 -53.87099457
rradius  -5.16745672e-007 2.214343908e-008 32.62459564
rwrist  -7.499573258e-005 0.03438235447 -139.2230072
rhand  -1.775242907e-031 5.986219883 -7.881830215
rfingers  -90 -7.125020027 -90
rthumb  -84.88329923 -8.341505645 -58.31643225
rfemur  -11.66431141 15.75636768 13.49437618
rtibia  -0.9659339786 -0.131539017 20.43067551
rfoot  0.09925423563 -20.43359947 -37.90000534
rtoes  4.099939364 19.59211694 -102.066185
lfemur  -7.781641006 -17.39188766 -19.91093636
ltibia  2.816828251 -0.02553442121 14.11433029
lfoot  0.6795713902 -25.08444023 36.18323517
ltoes  -8.506763157 -18.16811184 -115.6267749
361
root  34.84872533 36.5285528 -14.75205759 8.639492035 -2.247169495 3.286637545
lowerback  -8.314740181 0.2001059651 -0.1609815657
upperback  -3.125010014 0.6846010089 -3.301579952
thorax  1.466230035 0.4732809961 -3.25428009
lowerneck  -14.69229984 0.02648710087 0.1764149964
upperneck  15.69209957 -0.7552919388 5.788040161
head  7.266109943 0.316576004 1.798789978
lclavicle  0 -4.497500157e-015 -2.743230041e-014
lhumerus  -44.17599869 26.46089935 69.12229919
lradius  0.004719055258 -6.507048965e-006 29.9088974
lwrist  4.824992743e-007 -3.790274832e-007 -26.67539978
lhand  -4.405300586e-031 -36.72040176 -10.72439957
lfingers  90 7.125020027 -90
lthumb  94.74225044 -25.56571091 100.8814038
rclavicle  0 -4.497500157e-015 -2.743230041e-014
rhumerus  -52.58340073 -39.53779984 -54.47109985
rradius  -5.16745672e-007 2.214343908e-008 32.68759537
rwrist  -7.499573258e-005 0.03438235447 -139.1959991
rhand  -1.775242907e-031 5.986219883 -7.881830215
rfingers  -90 -7.125020027 -90
rthumb  -84.88329923 -8.341505645 -58.31643225
rfemur  -11.6467514 15.70187664 13.51968002
rtibia  -0.9670559764 -0.1422547102 20.4021759
rfoot  0.1019966528 -20.45021629 -37.92206573
rtoes  4.099939364 19.59211694 -102.066185
lfemur  -7.884543896 -17.41646767 -19.83971596
ltibia  2.747721672 -0.02527929842 14.24109554
lfoot  0.6703808904 -25.13716507 36.1139183
ltoes  -8.506763157 -18.16811184 -115.6267749
